<?xml version="1.0"?>
<svg xmlns="http://www.w3.org/2000/svg" xmlns:xlink="http://www.w3.org/1999/xlink" id="Gradient" viewBox="0 0 512 512" width="512" height="512"><defs><linearGradient id="linear-gradient" x1="256" y1="424" x2="256" y2="88" gradientUnits="userSpaceOnUse"><stop offset="0" stop-color="#3730B5"/><stop offset="0.5" stop-color="#c471ed"/><stop offset="1" stop-color="#f64f59"/></linearGradient></defs><path d="M56,312h8v8a8,8,0,0,0,8,8h9.754l22.485,89.94A8,8,0,0,0,112,424h72a8,8,0,0,0,8-8V384a8,8,0,0,0-8-8H158.246l-12-48h83.46L288,364.434V376a24,24,0,0,0,48,0V136a24,24,0,0,0-48,0v11.566L229.706,184H144V160a8,8,0,0,0-8-8H104a8,8,0,0,0-8,8v24H72a8,8,0,0,0-8,8v8H56a40.045,40.045,0,0,0-40,40v32A40.045,40.045,0,0,0,56,312Zm72-48H80V248h48ZM80,280h48v32H80Zm96,112v16H118.246l-20-80h31.508l14.485,57.94A8,8,0,0,0,152,392ZM304,136a8,8,0,0,1,16,0V376a8,8,0,0,1-16,0Zm-72,64a8,8,0,0,0,4.24-1.216L288,166.434V345.566l-51.76-32.35A8,8,0,0,0,232,312H144V200ZM112,168h16v16H112Zm16,32v32H80V200ZM32,240a24.027,24.027,0,0,1,24-24h8v80H56a24.027,24.027,0,0,1-24-24Zm322.343-90.343a8,8,0,0,1,0-11.314l48-48a8,8,0,0,1,11.314,11.314l-48,48a8,8,0,0,1-11.314,0Zm48,272-48-48a8,8,0,0,1,11.314-11.314l48,48a8,8,0,0,1-11.314,11.314Zm-65.5-130.079A8,8,0,0,0,344,296h32v32a8,8,0,0,0,12.8,6.4L416,314l27.2,20.4A8,8,0,0,0,456,328V296h32a8,8,0,0,0,6.4-12.8L474,256l20.4-27.2A8,8,0,0,0,488,216H456V184a8,8,0,0,0-12.8-6.4L416,198l-27.2-20.4A8,8,0,0,0,376,184v32H344a8,8,0,0,0-6.4,12.8L358,256l-20.4,27.2A8,8,0,0,0,336.845,291.578ZM374.4,251.2,360,232h24a8,8,0,0,0,8-8V200l19.2,14.4a8,8,0,0,0,9.6,0L440,200v24a8,8,0,0,0,8,8h24l-14.4,19.2a8,8,0,0,0,0,9.6L472,280H448a8,8,0,0,0-8,8v24l-19.2-14.4a8,8,0,0,0-9.6,0L392,312V288a8,8,0,0,0-8-8H360l14.4-19.2A8,8,0,0,0,374.4,251.2Zm19.943,26.457a8,8,0,0,1,0-11.314l32-32a8,8,0,0,1,11.314,11.314l-32,32a8,8,0,0,1-11.314,0ZM392,240a8,8,0,1,1,8,8A8,8,0,0,1,392,240Zm48,32a8,8,0,1,1-8-8A8,8,0,0,1,440,272Z" style="fill:url(#linear-gradient)"/></svg>
