<svg height="512" viewBox="0 0 64 64" width="512" xmlns="http://www.w3.org/2000/svg" xmlns:xlink="http://www.w3.org/1999/xlink"><linearGradient id="Gradiant_icon_Fauz" gradientUnits="userSpaceOnUse" x1="12" x2="52" y1="32" y2="32"><stop offset="0" stop-color="#e435d2"/><stop offset="1" stop-color="#312fb4"/></linearGradient><linearGradient id="Gradiant_icon_Fauz-2" xlink:href="#Gradiant_icon_Fauz" y1="3" y2="3"/><linearGradient id="Gradiant_icon_Fauz-3" xlink:href="#Gradiant_icon_Fauz" y1="28" y2="28"/><linearGradient id="Gradiant_icon_Fauz-4" xlink:href="#Gradiant_icon_Fauz" y1="55" y2="55"/><linearGradient id="Gradiant_icon_Fauz-5" xlink:href="#Gradiant_icon_Fauz" y1="22" y2="22"/><linearGradient id="Gradiant_icon_Fauz-6" xlink:href="#Gradiant_icon_Fauz" y1="38" y2="38"/><linearGradient id="Gradiant_icon_Fauz-11" xlink:href="#Gradiant_icon_Fauz" y1="30" y2="30"/><linearGradient id="Gradiant_icon_Fauz-18" xlink:href="#Gradiant_icon_Fauz" y1="24" y2="24"/><g id="gradiant"><path d="m47 2h-18a1 1 0 0 0 0 2h18a3.0033 3.0033 0 0 1 3 3v50a3.0033 3.0033 0 0 1 -3 3h-30a3.0033 3.0033 0 0 1 -3-3v-50a3.0033 3.0033 0 0 1 3-3h4a1 1 0 0 0 0-2h-4a5.0059 5.0059 0 0 0 -5 5v50a5.0059 5.0059 0 0 0 5 5h30a5.0059 5.0059 0 0 0 5-5v-50a5.0059 5.0059 0 0 0 -5-5z" fill="url(#Gradiant_icon_Fauz)"/><path d="m24 4h1a1 1 0 0 0 0-2h-1a1 1 0 0 0 0 2z" fill="url(#Gradiant_icon_Fauz-2)"/><path d="m17 6a1 1 0 0 0 -1 1v42a1 1 0 0 0 1 1h30a1 1 0 0 0 1-1v-42a1 1 0 0 0 -1-1h-9a1 1 0 0 0 -1 1v1a1.0009 1.0009 0 0 1 -1 1h-8a1.0009 1.0009 0 0 1 -1-1v-1a1 1 0 0 0 -1-1zm11 5h8a3.0033 3.0033 0 0 0 3-3h7v40h-28v-40h7a3.0033 3.0033 0 0 0 3 3z" fill="url(#Gradiant_icon_Fauz-3)"/><path d="m29 55a3 3 0 1 0 3-3 3.0033 3.0033 0 0 0 -3 3zm4 0a1 1 0 1 1 -1-1 1.0009 1.0009 0 0 1 1 1z" fill="url(#Gradiant_icon_Fauz-4)"/><path d="m20 19v6a1 1 0 0 0 1 1h6a1 1 0 0 0 1-1v-6a1 1 0 0 0 -1-1h-6a1 1 0 0 0 -1 1zm2 1h4v4h-4z" fill="url(#Gradiant_icon_Fauz-5)"/><path d="m27 34h-6a1 1 0 0 0 -1 1v6a1 1 0 0 0 1 1h6a1 1 0 0 0 1-1v-6a1 1 0 0 0 -1-1zm-1 6h-4v-4h4z" fill="url(#Gradiant_icon_Fauz-6)"/><path d="m43 34h-6a1 1 0 0 0 -1 1v6a1 1 0 0 0 1 1h6a1 1 0 0 0 1-1v-6a1 1 0 0 0 -1-1zm-1 6h-4v-4h4z" fill="url(#Gradiant_icon_Fauz-6)"/><path d="m37 26h6a1 1 0 0 0 1-1v-6a1 1 0 0 0 -1-1h-6a1 1 0 0 0 -1 1v6a1 1 0 0 0 1 1zm1-6h4v4h-4z" fill="url(#Gradiant_icon_Fauz-5)"/><path d="m30 22a1 1 0 0 0 1-1v-1h2v5a1 1 0 0 0 2 0v-6a1 1 0 0 0 -1-1h-4a1 1 0 0 0 -1 1v2a1 1 0 0 0 1 1z" fill="url(#Gradiant_icon_Fauz-5)"/><path d="m34 34h-3a1 1 0 0 0 -1 1 1 1 0 0 0 1 1h2v4h-1a1 1 0 0 0 -1 1 1 1 0 0 0 1 1h2a1 1 0 0 0 1-1v-6a1 1 0 0 0 -1-1z" fill="url(#Gradiant_icon_Fauz-6)"/><g fill="url(#Gradiant_icon_Fauz-11)"><path d="m21 33h3a1 1 0 0 0 0-2h-2v-2h4a1 1 0 0 0 2 0v-1a1 1 0 0 0 -1-1h-6a1 1 0 0 0 -1 1v4a1 1 0 0 0 1 1z"/><path d="m27 32a1 1 0 0 0 1 1h2a1 1 0 0 0 1-1v-4a1 1 0 0 0 -2 0v3h-1a1 1 0 0 0 -1 1z"/><path d="m43 27h-5a1 1 0 0 0 -1 1v3h-3a1 1 0 0 0 0 2h4a1 1 0 0 0 1-1v-3h3v3a1 1 0 0 0 2 0v-4a1 1 0 0 0 -1-1z"/></g><path d="m23 21h2v2h-2z" fill="url(#Gradiant_icon_Fauz-5)"/><path d="m39 21h2v2h-2z" fill="url(#Gradiant_icon_Fauz-5)"/><path d="m39 37h2v2h-2z" fill="url(#Gradiant_icon_Fauz-6)"/><path d="m30 37h2v2h-2z" fill="url(#Gradiant_icon_Fauz-6)"/><path d="m30 23h2v2h-2z" fill="url(#Gradiant_icon_Fauz-18)"/><path d="m23 37h2v2h-2z" fill="url(#Gradiant_icon_Fauz-6)"/><path d="m33 27a1 1 0 0 0 0 2h2a1 1 0 0 0 0-2z" fill="url(#Gradiant_icon_Fauz-3)"/></g></svg>