<svg id="_x33_0" enable-background="new 0 0 64 64" height="512" viewBox="0 0 64 64" width="512" xmlns="http://www.w3.org/2000/svg" 
xmlns:xlink="http://www.w3.org/1999/xlink"><linearGradient id="SVGID_1_" gradientUnits="userSpaceOnUse"
 x1="32" x2="32" y1="63" y2="1"><stop offset="0" stop-color="#DF35D1"/><stop offset="1" stop-color="#3730B5"/>
 </linearGradient><path d="m23 16c0 .552-.448 1-1 1s-1-.448-1-1 .448-1 1-1 1 .448 1 1zm19.715 25.301c.391-.188.823-.301 1.285-.301s.894.113 1.285.301l2.008-2.008 1.414 1.414-2.008 2.008c.188.391.301.823.301 1.285 0 1.654-1.346 3-3 3s-3-1.346-3-3c0-.462.113-.894.301-1.285l-3.008-3.008 1.414-1.414zm.285 2.699c0 .552.449 1 1 1s1-.448 1-1-.449-1-1-1-1 .448-1 1zm14-29h-2v2h2zm-4 0h-2v2h2zm-4 0h-2v2h2zm14-4v10c0 1.103-.897 2-2 2h-6.586l-3.293 3.293c-.027.027-.06.047-.088.072 7.002 2.803 11.967 9.644 11.967 17.635 0 10.477-8.523 19-19 19-4.358 0-8.549-1.506-11.922-4.231-2.783 2.616-6.517 4.231-10.628 4.231h-.376c-8.864 0-16.074-7.178-16.074-16.001v-2.72c0-4.716 2.233-8.731 6-10.872v-2.13l-1.109-1.849c-1.055-1.759-2.555-3.227-4.336-4.245l-.627-.358c-2.423-1.386-3.928-3.978-3.928-6.767 0-1.321.351-2.6.984-3.749-.625-1.262-.984-2.662-.984-4.117v-.154c0-4.983 4.055-9.038 9.038-9.038h15.962c1.654 0 3 1.346 3 3v3c0 1.772-.776 3.361-2 4.461v2.934c0 .198.058.39.167.554l1.3 1.95c.349.522.533 1.13.533 1.758 0 1.209-.672 2.297-1.753 2.838l-.248.123.001 4.382c0 2.757-2.243 5-5 5h-3v4.586c4.828 3.111 8 8.533 8 14.556v.752c1.237-1.264 2-2.991 2-4.895v-5.586l-1.121-1.121c-.567-.565-.879-1.319-.879-2.12v-3.172c0-1.654 1.346-3 3-3h.17c3.584-3.809 8.59-6 13.83-6 1.063 0 2.098.109 3.113.278-.066-.221-.113-.45-.113-.692v-1.586h-4c-1.103 0-2-.897-2-2v-10c0-1.103.897-2 2-2h18c1.103 0 2 .897 2 2zm-34 26.172c0 .263.107.521.293.707l1.121 1.121h4.586v-5c0-.552-.449-1-1-1h-4c-.551 0-1 .448-1 1zm14-2.172v-3.96c-2.204.166-4.296.886-6.14 2.104.082.273.14.556.14.856v13.449c0 2.299-.515 4.476-1.414 6.442 2.096 1.786 4.674 2.853 7.414 3.062v-3.953h2v3.949c2.833-.217 5.411-1.341 7.447-3.088l-2.791-2.79 1.414-1.414 2.791 2.79c1.747-2.036 2.871-4.615 3.088-7.447h-3.949v-2h3.949c-.217-2.833-1.341-5.411-3.088-7.447l-2.791 2.79-1.414-1.414 2.791-2.79c-2.036-1.747-4.615-2.871-7.447-3.088v3.949zm-27.474 1.013-1.1 1.65 7.207 4.118-2.037 2.037 5.056 3.16c-1.054-4.919-4.501-9.04-9.126-10.965zm9.474-11.013v-2h-3.829c.413 1.164 1.525 2 2.829 2zm0-10.605v-1.744c-.626.222-1.296.349-1.997.349h-6.003c-1.302 0-2.449-.635-3.18-1.601-.499.37-.82.953-.82 1.601v4h-1.667c-1.286 0-2.333 1.047-2.333 2.333 0 .73.349 1.429.934 1.867l3.066 2.3v9.673c1.404.274 2.744.713 4 1.304v-3.477h-2v-2h7c1.302 0 2.402-.839 2.816-2h-.816c-2.757 0-5-2.243-5-5v-1h6.105c.162-.501.511-.927 1.001-1.171l.247-.123c.398-.2.647-.602.647-1.049 0-.231-.068-.456-.197-.649l-1.299-1.949c-.33-.494-.504-1.069-.504-1.664zm-22-4.203c0 2.607 1.396 5.025 3.644 6.31l1 .572c.708-1.152 1.935-1.952 3.356-2.061v-2.013c0-1.468.814-2.783 2.053-3.479-.023-.172-.053-.343-.053-.521 0-2.206 1.794-4 4-4v2c-1.103 0-2 .897-2 2s.897 2 2 2h6.004c2.203 0 3.996-1.794 3.996-4v-3c0-.552-.449-1-1-1h-15.962c-3.881 0-7.038 3.157-7.038 7.038zm8 17.33v-3.022l-2.267-1.7c-1.085-.815-1.733-2.111-1.733-3.467 0-.105.022-.204.03-.307l-1.378-.788c-.909-.519-1.693-1.196-2.361-1.966-.187.574-.291 1.174-.291 1.786 0 2.073 1.119 4.001 2.919 5.03l.627.358c1.77 1.012 3.279 2.419 4.454 4.076zm24 19.927v-6.449h-4v5c0 4.963-4.038 9-9 9s-9-4.037-9-9h2c0 3.859 3.14 7 7 7 1.073 0 2.09-.243 3-.676v-2.182c0-.204-.02-.404-.028-.607l-8.568-5.354 1.963-1.963-6.793-3.882 1.999-2.998c-.459-.121-.926-.223-1.401-.301-3.245 1.755-5.172 5.186-5.172 9.242v2.72c0 7.72 6.313 14.001 14.073 14.001h.376c7.472 0 13.551-6.079 13.551-13.551zm9-20.449c-4.017 0-7.876 1.446-10.92 4h.92c.626 0 1.207.194 1.689.523 2.464-1.647 5.317-2.523 8.311-2.523 8.271 0 15 6.729 15 15s-6.729 15-15 15c-3.444 0-6.73-1.171-9.387-3.309-.355.565-.732 1.113-1.154 1.626 2.995 2.372 6.695 3.683 10.541 3.683 9.374 0 17-7.626 17-17s-7.626-17-17-17zm17-16h-18v10h6v3.586c0 .337.467.533.708.292l3.878-3.878h7.414z" fill="url(#SVGID_1_)"/></svg>